<?xml version="1.0" standalone="no"?><!DOCTYPE svg PUBLIC "-//W3C//DTD SVG 1.1//EN" "http://www.w3.org/Graphics/SVG/1.1/DTD/svg11.dtd"><svg t="1784689887568" class="icon" viewBox="0 0 1024 1024" version="1.1" xmlns="http://www.w3.org/2000/svg" p-id="7564" xmlns:xlink="http://www.w3.org/1999/xlink" width="200" height="200"><path d="M371.99 124.79c38.21 37.27 81.95 54.39 97.7 38.24 15.74-16.14-2.46-59.45-40.68-96.71-38.21-37.27-81.96-54.39-97.7-38.25-15.75 16.16 2.47 59.46 40.68 96.72z m0 0M429.03 281.36c52.25 10.88 98.34 1.79 102.94-20.29 4.59-22.08-34.05-48.8-86.3-59.67-52.26-10.87-98.35-1.79-102.94 20.29-4.6 22.08 34.04 48.79 86.3 59.67z m0 0M551.57 243.35c22.49 1.67 43.94-40.12 47.89-93.35 3.96-53.23-11.06-97.73-33.55-99.41-22.49-1.67-43.94 40.12-47.89 93.35-3.96 53.23 11.06 97.73 33.55 99.41z m0 0M494.35 406.27c50.1 18.42 97.02 16.18 104.8-4.98 7.78-21.17-26.52-53.26-76.62-71.68-50.1-18.42-97.02-16.18-104.8 4.99-7.79 21.17 26.52 53.25 76.62 71.67z m0 0M623.46 387.55c14.23 3.21 31.43-11.8 45.12-39.37 13.68-27.57 21.78-63.52 21.23-94.29-0.55-30.78-9.66-51.71-23.9-54.91-14.23-3.2-31.43 11.81-45.12 39.38-13.68 27.57-21.77 63.52-21.22 94.29 0.55 30.77 9.65 51.7 23.89 54.9z m0 0M498.87 533.64c40.62 34.63 85.41 48.78 100.04 31.62 14.63-17.16-6.44-59.15-47.06-93.78-40.62-34.62-85.41-48.78-100.04-31.62-14.63 17.17 6.44 59.15 47.06 93.78z m0 0M626.62 560.34c12.24 7.94 33.57-0.19 55.96-21.31 22.39-21.13 42.43-52.05 52.57-81.11 10.14-29.06 8.84-51.85-3.4-59.79-12.24-7.94-33.57 0.19-55.96 21.31-22.39 21.13-42.43 52.04-52.57 81.11-10.15 29.07-8.85 51.86 3.4 59.79z m0 0M465.46 660.22c26.41 46.39 63.7 74.95 83.3 63.8 19.6-11.16 14.09-57.81-12.31-104.2s-63.69-74.95-83.29-63.8c-19.62 11.16-14.11 57.81 12.3 104.2z m0 0M576.22 728.09c8.81 11.63 31.63 11.26 59.87-0.98s57.61-34.49 77.05-58.36c19.43-23.87 25.98-45.74 17.16-57.37-8.81-11.63-31.63-11.26-59.88 0.98-28.24 12.24-57.61 34.49-77.04 58.36-19.43 23.87-25.97 45.74-17.16 57.37z m0 0M387.03 765.67c6.1 53.03 29.21 93.92 51.62 91.35 22.41-2.58 35.63-47.66 29.52-100.68-6.1-53.03-29.21-93.92-51.62-91.35-22.41 2.57-35.62 47.65-29.52 100.68z m0 0M463.17 872.94c3.54 14.15 24.69 22.75 55.47 22.56 30.78-0.19 66.52-9.15 93.75-23.5 27.24-14.35 41.82-31.9 38.28-46.05-3.55-14.16-24.69-22.75-55.47-22.56-30.78 0.19-66.52 9.15-93.75 23.5-27.24 14.34-41.83 31.89-38.28 46.05z m0 0M313.14 942.95c14.49 1.66 29.98-15.12 40.62-44 10.64-28.88 14.82-65.49 10.96-96.03-3.86-30.54-15.16-50.37-29.66-52.02-14.5-1.65-29.98 15.12-40.62 44-10.64 28.88-14.82 65.49-10.96 96.03 3.86 30.54 15.16 50.37 29.66 52.02z m0 0M332.44 962.8c0.25 14.59 18.91 27.75 48.93 34.53 30.03 6.78 66.87 6.14 96.64-1.67 29.78-7.81 47.96-21.61 47.71-36.2-0.25-14.59-18.9-27.75-48.93-34.52-30.03-6.78-66.87-6.14-96.64 1.67-29.78 7.8-47.97 21.6-47.71 36.19z m0 0" fill="#FFD84D" p-id="7565"></path></svg>