<?xml version="1.0" standalone="no"?><!DOCTYPE svg PUBLIC "-//W3C//DTD SVG 1.1//EN" "http://www.w3.org/Graphics/SVG/1.1/DTD/svg11.dtd"><svg t="1784690038594" class="icon" viewBox="0 0 1024 1024" version="1.1" xmlns="http://www.w3.org/2000/svg" p-id="7710" xmlns:xlink="http://www.w3.org/1999/xlink" width="200" height="200"><path d="M554.92 162.9c10.18 10.44 32.76 7.23 59.24-8.41 26.48-15.64 52.83-41.34 69.14-67.42 16.3-26.08 20.07-48.57 9.89-59.01-10.18-10.44-32.76-7.23-59.24 8.41-26.48 15.65-52.83 41.35-69.14 67.43-16.3 26.08-20.07 48.57-9.89 59z m0 0M494.33 262.41c2.97 14.28 23.73 23.71 54.47 24.76 30.74 1.05 66.78-6.45 94.55-19.67 27.77-13.22 43.04-30.16 40.07-44.44-2.97-14.27-23.73-23.71-54.47-24.76-30.74-1.05-66.78 6.45-94.55 19.67-27.77 13.23-43.04 30.17-40.07 44.44z m0 0M424.36 150.64c2.56 34.4 12.68 65.62 26.55 81.89 13.87 16.27 29.38 15.11 40.69-3.03 11.31-18.14 16.7-50.51 14.14-84.92-2.56-34.41-12.68-65.62-26.55-81.89-13.87-16.27-29.38-15.11-40.69 3.03-11.31 18.14-16.7 50.51-14.14 84.92z m0 0M426.3 401.09c5.03 13.68 26.95 19.98 57.51 16.51 30.56-3.46 65.11-16.17 90.64-33.32s38.16-36.14 33.12-49.82c-5.03-13.69-26.95-19.98-57.51-16.51-30.56 3.46-65.12 16.17-90.64 33.32-25.52 17.14-38.15 36.13-33.12 49.82z m0 0M341.03 302.08c11.71 52.03 39.03 90.2 61.01 85.26 21.98-4.95 30.31-51.14 18.6-103.17-11.71-52.03-39.03-90.2-61.01-85.25-21.98 4.94-30.31 51.13-18.6 103.16z m0 0M425.92 566.28c9.45 11.09 32.2 9.41 59.67-4.43s55.48-37.71 73.49-62.65c18.01-24.93 23.28-47.12 13.82-58.21-9.46-11.1-32.2-9.41-59.67 4.42s-55.48 37.72-73.49 62.65c-18.01 24.93-23.28 47.13-13.82 58.22z m0 0M311.48 502.97c29.01 44.75 67.85 71.1 86.76 58.84 18.91-12.26 10.72-58.47-18.28-103.23-29.01-44.76-67.85-71.1-86.76-58.84-18.92 12.26-10.73 58.48 18.28 103.23z m0 0M475.69 723.78c12.67 7.21 33.48-2.12 54.59-24.48 21.11-22.36 39.32-54.36 47.76-83.93 8.44-29.57 5.84-52.23-6.83-59.44-12.67-7.21-33.48 2.12-54.59 24.48-21.11 22.36-39.32 54.36-47.76 83.93-8.45 29.58-5.84 52.24 6.83 59.44z m0 0M346.24 702.24c42.51 32.21 88.01 43.75 101.61 25.79 13.61-17.96-9.82-58.63-52.34-90.83-42.51-32.21-88.01-43.75-101.61-25.78-13.61 17.95 9.82 58.62 52.34 90.82z m0 0M584.76 856.77c22.39 2.57 45.48-38.29 51.57-91.27 6.09-52.98-7.11-98.02-29.5-100.6-22.39-2.57-45.48 38.29-51.57 91.27-6.09 52.99 7.11 98.02 29.5 100.6z m0 0M457.99 889.39c51.73 12.96 98.11 5.74 103.58-16.12 5.48-21.86-32.02-50.08-83.76-63.04s-98.11-5.74-103.59 16.12c-5.46 21.86 32.04 50.08 83.77 63.04z m0 0M658.45 851.41c6.05 52.99 29.1 93.87 51.49 91.32 22.39-2.55 35.64-47.59 29.59-100.57-6.05-52.99-29.1-93.87-51.49-91.31-22.39 2.55-35.64 47.57-29.59 100.56z m0 0M593.72 1001.97c34.5 0.59 66.51-6.63 83.98-18.96 17.47-12.32 17.73-27.88 0.7-40.8-17.03-12.92-48.78-21.25-83.28-21.84-34.5-0.59-66.51 6.63-83.98 18.96-17.47 12.32-17.73 27.88-0.7 40.8 17.04 12.92 48.78 21.24 83.28 21.84z m0 0" fill="#FFD84D" p-id="7711"></path></svg>